<?xml version="1.0" encoding="utf-8"?>
<!-- Generator: Adobe Illustrator 24.1.1, SVG Export Plug-In . SVG Version: 6.00 Build 0)  -->
<svg version="1.1" id="Lag_1" xmlns="http://www.w3.org/2000/svg" xmlns:xlink="http://www.w3.org/1999/xlink" x="0px" y="0px"
	 viewBox="0 0 1920 1080" style="enable-background:new 0 0 1920 1080;" xml:space="preserve">
<style type="text/css">
	.st0{fill:#FCEE21;}
	.st1{fill:#FFFFFF;}
</style>
<g>
	<path class="st0" d="M910,301c0,0,1-9,7-12s18,3,18,3l58,40l63-42c0,0,15-4,19,5s26,70,26,70l77,4c0,0,18,2,13,20s-21,68-21,68
		l61,47c0,0,10,13,0,21s-61,45-61,45l21,68c0,0,5,21-12,21s-76,0-76,0l-27,75c0,0-10,12-30-3s-51-36-51-36l-60,41c0,0-17,11-25-8
		s-24-68-24-68l-78-1c0,0-18-4-9-28s19-59,19-59l-59-47c0,0-14-13,3-26s56-42,56-42l-20-67c0,0-8-21,19-21s68-1,68-1L910,301z"/>
	<g>
		<path class="st1" d="M1081,418c0,0-1-9-6-14s-15,0-15,0L912,606c0,0-3.5,9.5,3,16s18,0,18,0L1081,418z"/>
		<path class="st1" d="M1053,524c0,0-39,3-39,47s39,48,39,48s40,1,40-48S1053,524,1053,524z M1053.77,599.22c-16,0-19-27-19-27
			s1-29,19-29s18,29,18,29S1069.77,599.22,1053.77,599.22z"/>
		<path class="st1" d="M935.77,408.22c0,0-39,3-39,47s39,48,39,48s40,1,40-48S935.77,408.22,935.77,408.22z M936.54,483.44
			c-16,0-19-27-19-27s1-29,19-29s18,29,18,29S952.54,483.44,936.54,483.44z"/>
	</g>
</g>
</svg>
