<?xml version="1.0" encoding="utf-8"?>
<!-- Generator: Adobe Illustrator 24.1.1, SVG Export Plug-In . SVG Version: 6.00 Build 0)  -->
<svg version="1.1" id="Lag_1" xmlns="http://www.w3.org/2000/svg" xmlns:xlink="http://www.w3.org/1999/xlink" x="0px" y="0px"
	 viewBox="0 0 1920 1080" style="enable-background:new 0 0 1920 1080;" xml:space="preserve">
<style type="text/css">
	.st0{fill:#FCEE21;}
</style>
<path class="st0" d="M1231,504l-61-47c0,0,16-50,21-68s-13-20-13-20l-77-4c0,0-22-61-26-70s-19-5-19-5l-63,42l-58-40c0,0-12-6-18-3
	s-7,12-7,12l-25,67c0,0-41,1-68,1s-19,21-19,21l20,67c0,0-39,29-56,42s-3,26-3,26l59,47c0,0-10,35-19,59s9,28,9,28l78,1
	c0,0,16,49,24,68s25,8,25,8l60-41c0,0,31,21,51,36s30,3,30,3l27-75c0,0,59,0,76,0s12-21,12-21l-21-68c0,0,51-37,61-45
	S1231,504,1231,504z M896.77,455.22c0-44,39-47,39-47s40-2,40,47s-40,48-40,48S896.77,499.22,896.77,455.22z M933,622
	c0,0-11.5,6.5-18,0s-3-16-3-16l148-202c0,0,10-5,15,0s6,14,6,14L933,622z M1053,619c0,0-39-4-39-48s39-47,39-47s40-2,40,47
	S1053,619,1053,619z"/>
<path class="st0" d="M1071.77,572.22c0,0-2,27-18,27s-19-27-19-27s1-29,19-29S1071.77,572.22,1071.77,572.22z"/>
<path class="st0" d="M954.77,456.44c0,0-2,27-18,27s-19-27-19-27s1-29,19-29S954.77,456.44,954.77,456.44z"/>
</svg>
